<svg width="212" height="50" viewBox="0 0 212 50" fill="none" xmlns="http://www.w3.org/2000/svg">
<rect x="10.5164" y="4.76953" width="37.9836" height="35.4615" rx="17.7308" fill="#DB90FF" stroke="#2E294E" stroke-width="3"/>
<path d="M25.7148 19.8C26.3548 19.8 26.9815 19.7333 27.5948 19.6C28.2082 19.44 28.7548 19.2 29.2348 18.88C29.7415 18.56 30.1415 18.1467 30.4348 17.64C30.7282 17.1067 30.8748 16.48 30.8748 15.76C30.8748 15.0133 30.7282 14.3867 30.4348 13.88C30.1682 13.3467 29.7948 12.92 29.3148 12.6C28.8348 12.2533 28.2882 12.0133 27.6748 11.88C27.0615 11.72 26.4215 11.64 25.7548 11.64H8.63484V19.8H25.7148ZM25.7548 13.88C26.0482 13.88 26.3682 13.9067 26.7148 13.96C27.0615 14.0133 27.3815 14.12 27.6748 14.28C27.9682 14.4133 28.2082 14.6 28.3948 14.84C28.5815 15.08 28.6748 15.3867 28.6748 15.76C28.6748 16.1333 28.5682 16.44 28.3548 16.68C28.1682 16.8933 27.9148 17.08 27.5948 17.24C27.3015 17.3733 26.9815 17.4667 26.6348 17.52C26.2882 17.5733 25.9815 17.6 25.7148 17.6H10.8748V13.88H25.7548ZM27.8748 30.36C28.5148 30.36 29.1548 30.2933 29.7948 30.16C30.4348 30 30.9948 29.76 31.4748 29.44C31.9815 29.0933 32.3815 28.6667 32.6748 28.16C32.9948 27.6267 33.1548 26.9867 33.1548 26.24C33.1548 25.5733 33.0215 24.9867 32.7548 24.48C32.4882 23.9733 32.1282 23.56 31.6748 23.24C31.2215 22.8933 30.7015 22.64 30.1148 22.48C29.5548 22.2933 28.9682 22.2 28.3548 22.2H8.63484V30.36H27.8748ZM28.3548 24.4C28.6215 24.4 28.9015 24.44 29.1948 24.52C29.5148 24.5733 29.7948 24.68 30.0348 24.84C30.3015 24.9733 30.5148 25.16 30.6748 25.4C30.8348 25.64 30.9148 25.92 30.9148 26.24C30.9148 26.64 30.8082 26.96 30.5948 27.2C30.4082 27.44 30.1548 27.6267 29.8348 27.76C29.5415 27.8933 29.2082 27.9867 28.8348 28.04C28.4882 28.0933 28.1682 28.12 27.8748 28.12H10.8748V24.4H28.3548ZM25.7548 9.2C26.8482 9.2 27.8615 9.32 28.7948 9.56C29.7282 9.8 30.5282 10.1867 31.1948 10.72C31.8882 11.2533 32.4215 11.9333 32.7948 12.76C33.1948 13.5867 33.4082 14.5867 33.4348 15.76C33.4348 16.4 33.2882 17.0133 32.9948 17.6C32.7282 18.16 32.3948 18.6533 31.9948 19.08C31.5948 19.5067 31.1682 19.8533 30.7148 20.12C30.2615 20.36 29.8748 20.4933 29.5548 20.52C30.2748 20.5733 30.9948 20.76 31.7148 21.08C32.4348 21.3733 33.0748 21.7733 33.6348 22.28C34.2215 22.7867 34.7015 23.3733 35.0748 24.04C35.4482 24.7067 35.6348 25.44 35.6348 26.24C35.6348 27.44 35.4348 28.4667 35.0348 29.32C34.6348 30.1467 34.0748 30.8267 33.3548 31.36C32.6615 31.8667 31.8348 32.24 30.8748 32.48C29.9415 32.6933 28.9415 32.8 27.8748 32.8H6.23484V9.2H25.7548ZM27.8748 35.04C29.3148 35.04 30.6482 34.88 31.8748 34.56C33.1015 34.2133 34.1548 33.6933 35.0348 33C35.9148 32.28 36.6082 31.3733 37.1148 30.28C37.6215 29.16 37.8748 27.8133 37.8748 26.24C37.8748 24.9067 37.5015 23.72 36.7548 22.68C36.0348 21.64 34.9415 20.8133 33.4748 20.2C33.7948 19.9333 34.0882 19.6267 34.3548 19.28C34.6215 18.9067 34.8482 18.52 35.0348 18.12C35.2215 17.72 35.3682 17.32 35.4748 16.92C35.5815 16.4933 35.6348 16.1067 35.6348 15.76C35.6348 14.24 35.3948 12.9333 34.9148 11.84C34.4348 10.72 33.7548 9.8 32.8748 9.08C32.0215 8.36 30.9815 7.82667 29.7548 7.48C28.5548 7.13333 27.2215 6.96 25.7548 6.96H3.99484V35.04H27.8748ZM2.99484 5.96H25.7548C28.1548 5.96 30.3282 6.36 32.2748 7.16C34.2215 7.96 36.0348 9.36 37.7148 11.36C38.2748 12.0267 38.7815 12.8533 39.2348 13.84C39.6882 14.8 40.0082 15.8133 40.1948 16.88C40.3815 17.92 40.3815 18.9467 40.1948 19.96C40.0348 20.9733 39.6082 21.84 38.9148 22.56C39.6082 22.8267 40.1948 23.28 40.6748 23.92C41.1548 24.5333 41.5415 25.2133 41.8348 25.96C42.1548 26.7067 42.3815 27.4667 42.5148 28.24C42.6748 29.0133 42.7548 29.68 42.7548 30.24C42.7548 31.9733 42.4748 33.4533 41.9148 34.68C41.3815 35.88 40.6348 36.8667 39.6748 37.64C38.7148 38.44 37.5682 39.0133 36.2348 39.36C34.9015 39.7333 33.4482 39.92 31.8748 39.92H7.11484L2.99484 36.04V5.96Z" fill="#16132C"/>
<path d="M67.2175 35V17.12H74.7295C75.7375 17.12 76.6095 17.312 77.3455 17.696C78.0975 18.064 78.6735 18.584 79.0735 19.256C79.4895 19.928 79.6975 20.712 79.6975 21.608C79.6975 22.536 79.4655 23.36 79.0015 24.08C78.5535 24.784 77.9055 25.32 77.0575 25.688L77.0335 25.112C77.7375 25.368 78.3375 25.728 78.8335 26.192C79.3455 26.656 79.7375 27.2 80.0095 27.824C80.2815 28.432 80.4175 29.088 80.4175 29.792C80.4175 31.392 79.9055 32.664 78.8815 33.608C77.8735 34.536 76.4975 35 74.7535 35H67.2175ZM69.1375 33.2H74.7535C75.8895 33.2 76.7935 32.904 77.4655 32.312C78.1535 31.704 78.4975 30.872 78.4975 29.816C78.4975 28.776 78.1535 27.952 77.4655 27.344C76.7935 26.72 75.8895 26.408 74.7535 26.408H69.1375V33.2ZM69.1375 24.68H74.5855C75.5455 24.68 76.3135 24.4 76.8895 23.84C77.4815 23.28 77.7775 22.56 77.7775 21.68C77.7775 20.784 77.4815 20.104 76.8895 19.64C76.3135 19.16 75.5455 18.92 74.5855 18.92H69.1375V24.68ZM88.1541 35.288C87.2581 35.288 86.4421 35.08 85.7061 34.664C84.9701 34.232 84.3861 33.64 83.9541 32.888C83.5381 32.12 83.3301 31.24 83.3301 30.248V22.136H85.1301V30.032C85.1301 30.72 85.2661 31.328 85.5381 31.856C85.8261 32.368 86.2181 32.768 86.7141 33.056C87.2261 33.344 87.8101 33.488 88.4661 33.488C89.1221 33.488 89.7061 33.344 90.2181 33.056C90.7301 32.752 91.1301 32.328 91.4181 31.784C91.7061 31.224 91.8501 30.56 91.8501 29.792V22.136H93.6501V35H91.8501V32.504L92.2581 32.6C91.9541 33.432 91.4341 34.088 90.6981 34.568C89.9621 35.048 89.1141 35.288 88.1541 35.288ZM101.816 35.288C100.584 35.288 99.5039 34.976 98.5759 34.352C97.6479 33.728 96.9759 32.88 96.5599 31.808L98.0719 31.088C98.4399 31.872 98.9519 32.496 99.6079 32.96C100.28 33.424 101.016 33.656 101.816 33.656C102.584 33.656 103.232 33.472 103.76 33.104C104.288 32.72 104.552 32.224 104.552 31.616C104.552 31.168 104.424 30.816 104.168 30.56C103.912 30.288 103.616 30.08 103.28 29.936C102.944 29.792 102.648 29.688 102.392 29.624L100.544 29.096C99.3599 28.76 98.5039 28.288 97.9759 27.68C97.4479 27.072 97.1839 26.368 97.1839 25.568C97.1839 24.816 97.3759 24.16 97.7599 23.6C98.1439 23.04 98.6639 22.608 99.3199 22.304C99.9759 22 100.704 21.848 101.504 21.848C102.592 21.848 103.576 22.136 104.456 22.712C105.352 23.272 105.984 24.056 106.352 25.064L104.816 25.784C104.496 25.064 104.032 24.504 103.424 24.104C102.832 23.688 102.168 23.48 101.432 23.48C100.712 23.48 100.136 23.664 99.7039 24.032C99.2719 24.4 99.0559 24.864 99.0559 25.424C99.0559 25.856 99.1679 26.2 99.3919 26.456C99.6159 26.712 99.8719 26.904 100.16 27.032C100.464 27.16 100.728 27.256 100.952 27.32L103.088 27.944C104.128 28.248 104.936 28.72 105.512 29.36C106.104 30 106.4 30.752 106.4 31.616C106.4 32.32 106.2 32.952 105.8 33.512C105.416 34.072 104.88 34.512 104.192 34.832C103.504 35.136 102.712 35.288 101.816 35.288ZM109.563 35V22.136H111.363V35H109.563ZM109.563 19.76V17.12H111.363V19.76H109.563ZM115.047 35V22.136H116.847V24.632L116.439 24.536C116.759 23.704 117.279 23.048 117.999 22.568C118.735 22.088 119.583 21.848 120.543 21.848C121.455 21.848 122.271 22.056 122.991 22.472C123.727 22.888 124.303 23.464 124.719 24.2C125.151 24.92 125.367 25.736 125.367 26.648V35H123.567V27.344C123.567 26.56 123.423 25.896 123.135 25.352C122.863 24.808 122.471 24.392 121.959 24.104C121.463 23.8 120.887 23.648 120.231 23.648C119.575 23.648 118.991 23.8 118.479 24.104C117.967 24.392 117.567 24.816 117.279 25.376C116.991 25.92 116.847 26.576 116.847 27.344V35H115.047ZM134.661 35.288C133.461 35.288 132.373 35 131.397 34.424C130.437 33.832 129.677 33.024 129.117 32C128.557 30.976 128.277 29.816 128.277 28.52C128.277 27.224 128.549 26.08 129.093 25.088C129.637 24.08 130.373 23.288 131.301 22.712C132.245 22.136 133.301 21.848 134.469 21.848C135.397 21.848 136.221 22.024 136.941 22.376C137.677 22.712 138.301 23.176 138.813 23.768C139.325 24.344 139.717 25 139.989 25.736C140.261 26.456 140.397 27.2 140.397 27.968C140.397 28.128 140.389 28.312 140.373 28.52C140.357 28.712 140.333 28.912 140.301 29.12H129.429V27.44H139.269L138.405 28.16C138.549 27.28 138.445 26.496 138.093 25.808C137.757 25.104 137.269 24.552 136.629 24.152C135.989 23.736 135.269 23.528 134.469 23.528C133.669 23.528 132.925 23.736 132.237 24.152C131.565 24.568 131.037 25.152 130.653 25.904C130.269 26.64 130.117 27.52 130.197 28.544C130.117 29.568 130.277 30.464 130.677 31.232C131.093 31.984 131.653 32.568 132.357 32.984C133.077 33.4 133.845 33.608 134.661 33.608C135.605 33.608 136.397 33.384 137.037 32.936C137.677 32.488 138.197 31.928 138.597 31.256L140.133 32.072C139.877 32.648 139.485 33.184 138.957 33.68C138.429 34.16 137.797 34.552 137.061 34.856C136.341 35.144 135.541 35.288 134.661 35.288ZM148.035 35.288C146.803 35.288 145.723 34.976 144.795 34.352C143.867 33.728 143.195 32.88 142.779 31.808L144.291 31.088C144.659 31.872 145.171 32.496 145.827 32.96C146.499 33.424 147.235 33.656 148.035 33.656C148.803 33.656 149.451 33.472 149.979 33.104C150.507 32.72 150.771 32.224 150.771 31.616C150.771 31.168 150.643 30.816 150.387 30.56C150.131 30.288 149.835 30.08 149.499 29.936C149.163 29.792 148.867 29.688 148.611 29.624L146.763 29.096C145.579 28.76 144.723 28.288 144.195 27.68C143.667 27.072 143.403 26.368 143.403 25.568C143.403 24.816 143.595 24.16 143.979 23.6C144.363 23.04 144.883 22.608 145.539 22.304C146.195 22 146.923 21.848 147.723 21.848C148.811 21.848 149.795 22.136 150.675 22.712C151.571 23.272 152.203 24.056 152.571 25.064L151.035 25.784C150.715 25.064 150.251 24.504 149.643 24.104C149.051 23.688 148.387 23.48 147.651 23.48C146.931 23.48 146.355 23.664 145.923 24.032C145.491 24.4 145.275 24.864 145.275 25.424C145.275 25.856 145.387 26.2 145.611 26.456C145.835 26.712 146.091 26.904 146.379 27.032C146.683 27.16 146.947 27.256 147.171 27.32L149.307 27.944C150.347 28.248 151.155 28.72 151.731 29.36C152.323 30 152.619 30.752 152.619 31.616C152.619 32.32 152.419 32.952 152.019 33.512C151.635 34.072 151.099 34.512 150.411 34.832C149.723 35.136 148.931 35.288 148.035 35.288ZM160.246 35.288C159.014 35.288 157.934 34.976 157.006 34.352C156.078 33.728 155.406 32.88 154.99 31.808L156.502 31.088C156.87 31.872 157.382 32.496 158.038 32.96C158.71 33.424 159.446 33.656 160.246 33.656C161.014 33.656 161.662 33.472 162.19 33.104C162.718 32.72 162.982 32.224 162.982 31.616C162.982 31.168 162.854 30.816 162.598 30.56C162.342 30.288 162.046 30.08 161.71 29.936C161.374 29.792 161.078 29.688 160.822 29.624L158.974 29.096C157.79 28.76 156.934 28.288 156.406 27.68C155.878 27.072 155.614 26.368 155.614 25.568C155.614 24.816 155.806 24.16 156.19 23.6C156.574 23.04 157.094 22.608 157.75 22.304C158.406 22 159.134 21.848 159.934 21.848C161.022 21.848 162.006 22.136 162.886 22.712C163.782 23.272 164.414 24.056 164.782 25.064L163.246 25.784C162.926 25.064 162.462 24.504 161.854 24.104C161.262 23.688 160.598 23.48 159.862 23.48C159.142 23.48 158.566 23.664 158.134 24.032C157.702 24.4 157.486 24.864 157.486 25.424C157.486 25.856 157.598 26.2 157.822 26.456C158.046 26.712 158.302 26.904 158.59 27.032C158.894 27.16 159.158 27.256 159.382 27.32L161.518 27.944C162.558 28.248 163.366 28.72 163.942 29.36C164.534 30 164.83 30.752 164.83 31.616C164.83 32.32 164.63 32.952 164.23 33.512C163.846 34.072 163.31 34.512 162.622 34.832C161.934 35.136 161.142 35.288 160.246 35.288ZM171.713 35.288C170.897 35.288 170.169 35.136 169.529 34.832C168.889 34.512 168.385 34.08 168.017 33.536C167.649 32.992 167.465 32.368 167.465 31.664C167.465 30.992 167.609 30.384 167.897 29.84C168.185 29.28 168.633 28.808 169.241 28.424C169.849 28.04 170.625 27.768 171.569 27.608L176.609 26.768V28.4L172.001 29.168C171.073 29.328 170.401 29.624 169.985 30.056C169.585 30.488 169.385 31 169.385 31.592C169.385 32.168 169.609 32.656 170.057 33.056C170.521 33.456 171.113 33.656 171.833 33.656C172.713 33.656 173.481 33.472 174.137 33.104C174.793 32.72 175.305 32.208 175.673 31.568C176.041 30.928 176.225 30.216 176.225 29.432V26.168C176.225 25.4 175.945 24.776 175.385 24.296C174.825 23.816 174.097 23.576 173.201 23.576C172.417 23.576 171.729 23.776 171.137 24.176C170.545 24.56 170.105 25.064 169.817 25.688L168.185 24.8C168.425 24.256 168.801 23.76 169.313 23.312C169.841 22.864 170.441 22.512 171.113 22.256C171.785 21.984 172.481 21.848 173.201 21.848C174.145 21.848 174.977 22.032 175.697 22.4C176.433 22.768 177.001 23.28 177.401 23.936C177.817 24.576 178.025 25.32 178.025 26.168V35H176.225V32.432L176.489 32.696C176.265 33.176 175.913 33.616 175.433 34.016C174.969 34.4 174.417 34.712 173.777 34.952C173.153 35.176 172.465 35.288 171.713 35.288ZM181.727 39.8V22.136H183.527V25.016L183.239 24.512C183.751 23.696 184.431 23.048 185.279 22.568C186.143 22.088 187.127 21.848 188.231 21.848C189.447 21.848 190.527 22.144 191.471 22.736C192.431 23.312 193.183 24.104 193.727 25.112C194.287 26.12 194.567 27.272 194.567 28.568C194.567 29.848 194.287 31 193.727 32.024C193.183 33.032 192.431 33.832 191.471 34.424C190.527 35 189.447 35.288 188.231 35.288C187.127 35.288 186.127 35.04 185.231 34.544C184.351 34.032 183.687 33.312 183.239 32.384L183.527 32.12V39.8H181.727ZM188.135 33.488C188.999 33.488 189.767 33.272 190.439 32.84C191.127 32.408 191.663 31.824 192.047 31.088C192.447 30.336 192.647 29.496 192.647 28.568C192.647 27.624 192.447 26.784 192.047 26.048C191.663 25.312 191.127 24.728 190.439 24.296C189.767 23.864 188.999 23.648 188.135 23.648C187.271 23.648 186.487 23.864 185.783 24.296C185.095 24.728 184.543 25.32 184.127 26.072C183.727 26.808 183.527 27.64 183.527 28.568C183.527 29.496 183.727 30.336 184.127 31.088C184.543 31.824 185.095 32.408 185.783 32.84C186.487 33.272 187.271 33.488 188.135 33.488ZM197.735 39.8V22.136H199.535V25.016L199.247 24.512C199.759 23.696 200.439 23.048 201.287 22.568C202.151 22.088 203.135 21.848 204.239 21.848C205.455 21.848 206.535 22.144 207.479 22.736C208.439 23.312 209.191 24.104 209.735 25.112C210.295 26.12 210.575 27.272 210.575 28.568C210.575 29.848 210.295 31 209.735 32.024C209.191 33.032 208.439 33.832 207.479 34.424C206.535 35 205.455 35.288 204.239 35.288C203.135 35.288 202.135 35.04 201.239 34.544C200.359 34.032 199.695 33.312 199.247 32.384L199.535 32.12V39.8H197.735ZM204.143 33.488C205.007 33.488 205.775 33.272 206.447 32.84C207.135 32.408 207.671 31.824 208.055 31.088C208.455 30.336 208.655 29.496 208.655 28.568C208.655 27.624 208.455 26.784 208.055 26.048C207.671 25.312 207.135 24.728 206.447 24.296C205.775 23.864 205.007 23.648 204.143 23.648C203.279 23.648 202.495 23.864 201.791 24.296C201.103 24.728 200.551 25.32 200.135 26.072C199.735 26.808 199.535 27.64 199.535 28.568C199.535 29.496 199.735 30.336 200.135 31.088C200.551 31.824 201.103 32.408 201.791 32.84C202.495 33.272 203.279 33.488 204.143 33.488Z" fill="white"/>
</svg>
