<svg width="87" height="70" viewBox="0 0 87 70" fill="none" xmlns="http://www.w3.org/2000/svg">
<rect x="17" width="70" height="70" rx="35" fill="#DB90FF"/>
<path d="M40.251 26.4C41.371 26.4 42.4676 26.2833 43.541 26.05C44.6143 25.77 45.571 25.35 46.411 24.79C47.2976 24.23 47.9976 23.5067 48.511 22.62C49.0243 21.6867 49.281 20.59 49.281 19.33C49.281 18.0233 49.0243 16.9267 48.511 16.04C48.0443 15.1067 47.391 14.36 46.551 13.8C45.711 13.1933 44.7543 12.7733 43.681 12.54C42.6076 12.26 41.4876 12.12 40.321 12.12H10.361V26.4H40.251ZM40.321 16.04C40.8343 16.04 41.3943 16.0867 42.001 16.18C42.6076 16.2733 43.1676 16.46 43.681 16.74C44.1943 16.9733 44.6143 17.3 44.941 17.72C45.2676 18.14 45.431 18.6767 45.431 19.33C45.431 19.9833 45.2443 20.52 44.871 20.94C44.5443 21.3133 44.101 21.64 43.541 21.92C43.0276 22.1533 42.4676 22.3167 41.861 22.41C41.2543 22.5033 40.7176 22.55 40.251 22.55H14.281V16.04H40.321ZM44.031 44.88C45.151 44.88 46.271 44.7633 47.391 44.53C48.511 44.25 49.491 43.83 50.331 43.27C51.2176 42.6633 51.9176 41.9167 52.431 41.03C52.991 40.0967 53.271 38.9767 53.271 37.67C53.271 36.5033 53.0376 35.4767 52.571 34.59C52.1043 33.7033 51.4743 32.98 50.681 32.42C49.8876 31.8133 48.9776 31.37 47.951 31.09C46.971 30.7633 45.9443 30.6 44.871 30.6H10.361V44.88H44.031ZM44.871 34.45C45.3376 34.45 45.8276 34.52 46.341 34.66C46.901 34.7533 47.391 34.94 47.811 35.22C48.2776 35.4533 48.651 35.78 48.931 36.2C49.211 36.62 49.351 37.11 49.351 37.67C49.351 38.37 49.1643 38.93 48.791 39.35C48.4643 39.77 48.021 40.0967 47.461 40.33C46.9476 40.5633 46.3643 40.7267 45.711 40.82C45.1043 40.9133 44.5443 40.96 44.031 40.96H14.281V34.45H44.871ZM40.321 7.85C42.2343 7.85 44.0076 8.06 45.641 8.48C47.2743 8.9 48.6743 9.57666 49.841 10.51C51.0543 11.4433 51.9876 12.6333 52.641 14.08C53.341 15.5267 53.7143 17.2767 53.761 19.33C53.761 20.45 53.5043 21.5233 52.991 22.55C52.5243 23.53 51.941 24.3933 51.241 25.14C50.541 25.8867 49.7943 26.4933 49.001 26.96C48.2076 27.38 47.531 27.6133 46.971 27.66C48.231 27.7533 49.491 28.08 50.751 28.64C52.011 29.1533 53.131 29.8533 54.111 30.74C55.1376 31.6267 55.9776 32.6533 56.631 33.82C57.2843 34.9867 57.611 36.27 57.611 37.67C57.611 39.77 57.261 41.5667 56.561 43.06C55.861 44.5067 54.881 45.6967 53.621 46.63C52.4076 47.5167 50.961 48.17 49.281 48.59C47.6476 48.9633 45.8976 49.15 44.031 49.15H6.16098V7.85H40.321ZM44.031 53.07C46.551 53.07 48.8843 52.79 51.031 52.23C53.1776 51.6233 55.021 50.7133 56.561 49.5C58.101 48.24 59.3143 46.6533 60.201 44.74C61.0876 42.78 61.531 40.4233 61.531 37.67C61.531 35.3367 60.8776 33.26 59.571 31.44C58.311 29.62 56.3976 28.1733 53.831 27.1C54.391 26.6333 54.9043 26.0967 55.371 25.49C55.8376 24.8367 56.2343 24.16 56.561 23.46C56.8876 22.76 57.1443 22.06 57.331 21.36C57.5176 20.6133 57.611 19.9367 57.611 19.33C57.611 16.67 57.191 14.3833 56.351 12.47C55.511 10.51 54.321 8.9 52.781 7.64C51.2876 6.38 49.4676 5.44667 47.321 4.84C45.221 4.23333 42.8876 3.93 40.321 3.93H2.24098V53.07H44.031ZM0.490977 2.18H40.321C44.521 2.18 48.3243 2.88 51.731 4.28C55.1376 5.68 58.311 8.13 61.251 11.63C62.231 12.7967 63.1176 14.2433 63.911 15.97C64.7043 17.65 65.2643 19.4233 65.591 21.29C65.9176 23.11 65.9176 24.9067 65.591 26.68C65.311 28.4533 64.5643 29.97 63.351 31.23C64.5643 31.6967 65.591 32.49 66.431 33.61C67.271 34.6833 67.9476 35.8733 68.461 37.18C69.021 38.4867 69.4176 39.8167 69.651 41.17C69.931 42.5233 70.071 43.69 70.071 44.67C70.071 47.7033 69.581 50.2933 68.601 52.44C67.6676 54.54 66.361 56.2667 64.681 57.62C63.001 59.02 60.9943 60.0233 58.661 60.63C56.3276 61.2833 53.7843 61.61 51.031 61.61H7.70098L0.490977 54.82V2.18Z" fill="#2E294E"/>
</svg>
